<?xml version="1.0" encoding="utf-8"?>
<!-- Generator: Adobe Illustrator 24.2.0, SVG Export Plug-In . SVG Version: 6.00 Build 0)  -->
<svg version="1.1" id="Capa_1" xmlns="http://www.w3.org/2000/svg" xmlns:xlink="http://www.w3.org/1999/xlink" x="0px" y="0px"
	 viewBox="0 0 1569.74 2218.27" style="enable-background:new 0 0 1569.74 2218.27;" xml:space="preserve" preserveAspectRatio="none">
<style type="text/css">
	.st0{fill:none;stroke:#020000;stroke-width:18;stroke-miterlimit:10;}
	.st1{fill:#00466D;}
	.st2{fill:none;stroke:#D8A933;stroke-width:13;stroke-miterlimit:10;}
	.st3{fill:#FFFFFF;stroke:#D8A933;stroke-width:13;stroke-miterlimit:10;}
	.st4{fill:none;stroke:#DC0A11;stroke-width:13;stroke-miterlimit:10;}
	.st5{fill:#FFFFFF;stroke:#DC0A11;stroke-width:13;stroke-miterlimit:10;}
	.st6{opacity:0.8;fill:#36475F;}
</style>
<g>
	<path class="st2" d="M1516.27,360.02V297.7c0-109.19-71.39-197.7-159.46-197.7l-708.39,71.59L221.49,100
		c-88.07,0-159.45,88.51-159.45,197.7v61.82v948.41v62.32c0,109.19,71.39,197.7,159.46,197.7l708.39-71.59l426.93,71.59
		c88.07,0,159.45-88.51,159.45-197.7v-61.82V360.02z"/>
	<path class="st2" d="M1580.23,367.99l-579.81,58.59L573.49,355c-88.07,0-159.45,88.51-159.45,197.7v61.82v948.41v62.32
		c0,17.66,1.88,34.78,5.38,51.07l-35.93,3.63c-88.07,0-159.46-88.51-159.46-197.7v-62.32V471.52V409.7
		c0-109.19,71.39-197.7,159.45-197.7l426.93,71.59L1518.81,212c21.77,0,42.51,5.42,61.42,15.21"/>
	<path class="st2" d="M697.04,1725.93v62.32c0,7.48,0.35,14.85,1,22.11l-124.54,12.59c-73.82,0-135.91-62.2-154.07-146.63
		l277.62-28.06V1725.93z"/>
	<path class="st2" d="M1580.23,559.59l-296.81,29.99L856.49,518c-88.07,0-159.45,88.51-159.45,197.7v61.82v870.74l-277.62,28.06
		c-3.5-16.29-5.38-33.41-5.38-51.07v-62.32V614.52V552.7c0-109.19,71.39-197.7,159.45-197.7l426.93,71.59l579.81-58.59"/>
	<path class="st2" d="M994.04,1948.93v23.12l-137.54,13.9c-82.04,0-149.59-76.81-158.46-175.59l296-29.91V1948.93z"/>
	<path class="st2" d="M697.04,1725.93v-77.67l297-30.01v162.2l-296,29.91c-0.65-7.26-1-14.64-1-22.11V1725.93z"/>
	<path class="st2" d="M1580.23,812.55L1153.49,741c-88.07,0-159.45,88.51-159.45,197.7v61.82v617.73l-297,30.01V777.52V715.7
		c0-109.19,71.39-197.7,159.45-197.7l426.93,71.59l296.81-29.99"/>
	<path class="st2" d="M1580.23,2165.82l-426.73,43.12c-88.07,0-159.46-88.51-159.46-197.7v-39.2l570.85-57.69l15.34,2.57"/>
	<polyline class="st2" points="1580.23,1916.93 1564.89,1914.35 994.04,1972.04 994.04,1948.93 994.04,1780.44 1281.89,1751.35 
		1580.23,1801.38 	"/>
	<path class="st2" d="M1580.23,1801.38l-298.34-50.03l-287.85,29.09v-162.2l97.85-9.89l426.93,71.59c21.77,0,42.51-5.41,61.41-15.2"
		/>
	<path class="st2" d="M1580.23,1664.74c-18.9,9.79-39.65,15.2-61.41,15.2l-426.93-71.59l-97.85,9.89v-617.73V938.7
		c0-109.19,71.39-197.7,159.45-197.7l426.74,71.55"/>
</g>
<g>
	<path class="st3" d="M1462.23,269.02V206.7c0-109.19-71.39-197.7-159.46-197.7L594.38,80.59L167.45,9C79.39,9,8,97.51,8,206.7
		v61.82v948.41v62.32c0,109.19,71.39,197.7,159.46,197.7l708.39-71.59l426.93,71.59c88.07,0,159.45-88.51,159.45-197.7v-61.82
		V269.02z"/>
</g>
</svg>
