<?xml version="1.0" encoding="utf-8"?>
<!-- Generator: Adobe Illustrator 24.2.0, SVG Export Plug-In . SVG Version: 6.00 Build 0)  -->
<svg version="1.1" id="Capa_1" xmlns="http://www.w3.org/2000/svg" xmlns:xlink="http://www.w3.org/1999/xlink" x="0px" y="0px"
	 viewBox="0 0 1576.43 2231.24" style="enable-background:new 0 0 1576.43 2231.24;" xml:space="preserve" preserveAspectRatio="none">
<style type="text/css">
	.st0{fill:none;stroke:#020000;stroke-width:18;stroke-miterlimit:10;}
	.st1{fill:#00466D;}
	.st2{fill:none;stroke:#D8A933;stroke-width:13;stroke-miterlimit:10;}
	.st3{fill:#FFFFFF;stroke:#D8A933;stroke-width:13;stroke-miterlimit:10;}
	.st4{fill:none;stroke:#DC0A11;stroke-width:13;stroke-miterlimit:10;}
	.st5{fill:#FFFFFF;stroke:#DC0A11;stroke-width:13;stroke-miterlimit:10;}
	.st6{opacity:0.8;fill:#36475F;}
</style>
<g>
	<path class="st4" d="M56.31,373.37v-62.32c0-109.19,71.39-197.7,159.46-197.7l708.39,71.59l426.93-71.59
		c88.07,0,159.45,88.51,159.45,197.7v61.82v948.41v62.32c0,109.19-71.39,197.7-159.46,197.7l-708.39-71.59l-426.93,71.59
		c-88.07,0-159.45-88.51-159.45-197.7v-61.82V373.37z"/>
	<path class="st4" d="M-7.65,381.35l579.81,58.59l426.93-71.59c88.07,0,159.45,88.51,159.45,197.7v61.82v948.41v62.32
		c0,17.66-1.88,34.78-5.38,51.07l35.93,3.63c88.07,0,159.46-88.51,159.46-197.7v-62.32V484.87v-61.82
		c0-109.19-71.39-197.7-159.45-197.7l-426.93,71.59L53.77,225.35c-21.77,0-42.51,5.42-61.42,15.21"/>
	<path class="st4" d="M875.54,1739.28v62.32c0,7.48-0.35,14.85-1,22.11l124.54,12.59c73.82,0,135.91-62.2,154.07-146.63
		l-277.62-28.06V1739.28z"/>
	<path class="st4" d="M-7.65,572.95l296.81,29.99l426.93-71.59c88.07,0,159.45,88.51,159.45,197.7v61.82v870.74l277.62,28.06
		c3.5-16.29,5.38-33.41,5.38-51.07v-62.32V627.87v-61.82c0-109.19-71.39-197.7-159.45-197.7l-426.93,71.59L-7.65,381.35"/>
	<path class="st4" d="M578.54,1962.28v23.12l137.54,13.9c82.04,0,149.59-76.81,158.46-175.59l-296-29.91V1962.28z"/>
	<path class="st4" d="M875.54,1739.28v-77.67l-297-30.01v162.2l296,29.91c0.65-7.26,1-14.64,1-22.11V1739.28z"/>
	<path class="st4" d="M-7.65,825.91l426.74-71.55c88.07,0,159.45,88.51,159.45,197.7v61.82v617.73l297,30.01V790.87v-61.82
		c0-109.19-71.39-197.7-159.45-197.7l-426.93,71.59L-7.65,572.95"/>
	<path class="st4" d="M-7.65,2179.17l426.73,43.12c88.07,0,159.46-88.51,159.46-197.7v-39.2L7.7,1927.71l-15.34,2.57"/>
	<polyline class="st4" points="-7.65,1930.28 7.7,1927.71 578.54,1985.39 578.54,1962.28 578.54,1793.8 290.7,1764.71 
		-7.65,1814.73 	"/>
	<path class="st4" d="M-7.65,1814.73l298.34-50.03l287.85,29.09v-162.2l-97.85-9.89l-426.93,71.59c-21.77,0-42.51-5.41-61.41-15.2"
		/>
	<path class="st4" d="M-7.65,1678.09c18.9,9.79,39.65,15.2,61.41,15.2l426.93-71.59l97.85,9.89v-617.73v-61.82
		c0-109.19-71.39-197.7-159.45-197.7L-7.65,825.91"/>
</g>
<g>
	<path class="st5" d="M113.31,269.37v-62.32c0-109.19,71.39-197.7,159.46-197.7l708.39,71.59l426.93-71.59
		c88.07,0,159.45,88.51,159.45,197.7v61.82v948.41v62.32c0,109.19-71.39,197.7-159.46,197.7l-708.39-71.59l-426.93,71.59
		c-88.07,0-159.45-88.51-159.45-197.7v-61.82V269.37z"/>
</g>
</svg>
