<?xml version="1.0" encoding="utf-8"?>
<!-- Generator: Adobe Illustrator 24.2.0, SVG Export Plug-In . SVG Version: 6.00 Build 0)  -->
<svg version="1.1" id="Capa_1" xmlns="http://www.w3.org/2000/svg" xmlns:xlink="http://www.w3.org/1999/xlink" x="0px" y="0px"
	 viewBox="0 0 1685.96 2227.03" style="enable-background:new 0 0 1685.96 2227.03;" xml:space="preserve" preserveAspectRatio="none">
<style type="text/css">
	.st0{fill:none;stroke:#DC0A11;stroke-width:13;stroke-miterlimit:10;}
	.st1{fill:none;stroke:#D8A933;stroke-width:13;stroke-miterlimit:10;}
	.st2{fill:#FFFFFF;stroke:#D8A933;stroke-width:13;stroke-miterlimit:10;}
	.st3{fill:none;}
	.st4{fill:#000001;}
	.st5{font-family:'Calibri';}
	.st6{font-size:90px;}
	.st7{letter-spacing:26.29;}
	.st8{letter-spacing:47.52;}
	.st9{letter-spacing:57.63;}
	.st10{letter-spacing:-2.02;}
	.st11{letter-spacing:9.1;}
	.st12{opacity:0.8;fill:#36475F;enable-background:new    ;}
	.st13{fill:#FFFFFF;}
	.st14{font-family:'Calibri-Bold';}
	.st15{fill:none;stroke:#020000;stroke-width:18;stroke-miterlimit:10;}
	.st16{opacity:0.89;fill:#00466D;stroke:#00466D;stroke-width:14;stroke-miterlimit:10;enable-background:new    ;}
</style>
<g>
	<path class="st0" d="M57.96,370.43v-62.32c0-109.19,71.39-197.7,159.46-197.7L925.81,182l426.93-71.59
		c88.07,0,159.45,88.51,159.45,197.7v61.82v948.41v62.32c0,109.19-71.39,197.7-159.46,197.7l-708.39-71.59l-426.93,71.59
		c-88.07,0-159.45-88.51-159.45-197.7v-61.82L57.96,370.43L57.96,370.43z"/>
	<path class="st0" d="M-6,378.41L573.81,437l426.93-71.59c88.07,0,159.45,88.51,159.45,197.7v61.82v948.41v62.32
		c0,17.66-1.88,34.78-5.38,51.07l35.93,3.63c88.07,0,159.46-88.51,159.46-197.7v-62.32V481.93v-61.82
		c0-109.19-71.39-197.7-159.45-197.7L763.82,294l-708.4-71.58c-21.77,0-42.51,5.42-61.42,15.21"/>
	<path class="st0" d="M877.19,1736.34v62.32c0,7.48-0.35,14.85-1,22.11l124.54,12.59c73.82,0,135.91-62.2,154.07-146.63
		l-277.62-28.06L877.19,1736.34L877.19,1736.34z"/>
	<path class="st0" d="M-6,570.01L290.81,600l426.93-71.59c88.07,0,159.45,88.51,159.45,197.7v61.82v870.74l277.62,28.06
		c3.5-16.29,5.38-33.41,5.38-51.07v-62.32V624.93v-61.82c0-109.19-71.39-197.7-159.45-197.7L573.81,437L-6,378.41"/>
	<path class="st0" d="M580.19,1959.34v23.12l137.54,13.9c82.04,0,149.59-76.81,158.46-175.59l-296-29.91V1959.34z"/>
	<path class="st0" d="M877.19,1736.34v-77.67l-297-30.01v162.2l296,29.91c0.65-7.26,1-14.64,1-22.11V1736.34z"/>
	<path class="st0" d="M-6,822.97l426.74-71.55c88.07,0,159.45,88.51,159.45,197.7v61.81v617.73l297,30.01V787.93v-61.82
		c0-109.19-71.39-197.7-159.45-197.7L290.81,600L-6,570.01"/>
	<path class="st0" d="M-6,2176.23l426.73,43.12c88.07,0,159.46-88.51,159.46-197.7v-39.2L9.34,1924.77L-6,1927.34"/>
	<polyline class="st0" points="-6,1927.34 9.34,1924.77 580.19,1982.46 580.19,1959.34 580.19,1790.86 292.34,1761.77 -6,1811.8 	
		"/>
	<path class="st0" d="M-6,1811.8l298.34-50.03l287.85,29.09v-162.2l-97.85-9.89l-426.93,71.59c-21.77,0-42.51-5.41-61.41-15.2"/>
	<path class="st0" d="M-6,1675.15c18.9,9.79,39.65,15.2,61.41,15.2l426.93-71.59l97.85,9.89v-617.72v-61.82
		c0-109.19-71.39-197.7-159.45-197.7L-6,822.97"/>
</g>
<g>
	<path class="st1" d="M1624.23,370.43v-62.32c0-109.19-71.39-197.7-159.46-197.7L756.38,182l-426.93-71.59
		C241.39,110.42,170,198.93,170,308.11v61.82v948.41v62.32c0,109.19,71.39,197.7,159.46,197.7l708.39-71.59l426.93,71.59
		c88.07,0,159.45-88.51,159.45-197.7v-61.82V370.43z"/>
	<path class="st1" d="M1688.19,378.41L1108.38,437l-426.93-71.59C593.39,365.42,522,453.93,522,563.11v61.82v948.41v62.32
		c0,17.66,1.88,34.78,5.38,51.07l-35.93,3.63c-88.07,0-159.46-88.51-159.46-197.7v-62.32V481.93v-61.82
		c0-109.19,71.39-197.7,159.45-197.7L918.37,294l708.39-71.59c21.77,0,42.51,5.42,61.42,15.21"/>
	<path class="st1" d="M805,1736.34v62.32c0,7.48,0.35,14.85,1,22.11l-124.54,12.59c-73.82,0-135.91-62.2-154.07-146.63L805,1658.67
		V1736.34z"/>
	<path class="st1" d="M1688.19,570.01L1391.38,600l-426.93-71.59C876.39,528.42,805,616.93,805,726.11v61.82v870.74l-277.62,28.06
		c-3.5-16.29-5.38-33.41-5.38-51.07v-62.32V624.93v-61.82c0-109.19,71.39-197.7,159.45-197.7L1108.38,437l579.81-58.59"/>
	<path class="st1" d="M1102,1959.34v23.12l-137.54,13.9c-82.04,0-149.59-76.81-158.46-175.59l296-29.91V1959.34z"/>
	<path class="st1" d="M805,1736.34v-77.67l297-30.01v162.2l-296,29.91c-0.65-7.26-1-14.64-1-22.11V1736.34z"/>
	<path class="st1" d="M1688.19,822.97l-426.74-71.55c-88.07,0-159.45,88.51-159.45,197.7v61.81v617.73l-297,30.01V787.93v-61.82
		c0-109.19,71.39-197.7,159.45-197.7L1391.38,600l296.81-29.99"/>
	<path class="st1" d="M1688.19,2176.23l-426.73,43.12c-88.07,0-159.46-88.51-159.46-197.7v-39.2l570.85-57.69l15.34,2.57"/>
	<polyline class="st1" points="1688.19,1927.34 1672.85,1924.77 1102,1982.46 1102,1959.34 1102,1790.86 1389.85,1761.77 
		1688.19,1811.8 	"/>
	<path class="st1" d="M1688.19,1811.8l-298.34-50.03L1102,1790.86v-162.2l97.85-9.89l426.93,71.59c21.77,0,42.51-5.41,61.41-15.2"/>
	<path class="st1" d="M1688.19,1675.15c-18.9,9.79-39.65,15.2-61.41,15.2l-426.93-71.59l-97.85,9.89v-617.72v-61.82
		c0-109.19,71.39-197.7,159.45-197.7l426.74,71.55"/>
</g>
<g>
	<path class="st2" d="M1568.19,267.43v-62.32c0-109.19-71.39-197.7-159.46-197.7L700.34,79L273.41,7.42
		c-88.07,0-159.45,88.51-159.45,197.7v61.81v948.41v62.32c0,109.19,71.39,197.7,159.46,197.7l708.39-71.59l426.93,71.59
		c88.07,0,159.45-88.51,159.45-197.7v-61.82V267.43z"/>
	<rect x="162.19" y="284.98" class="st3" width="1360" height="610.34"/>
	<text transform="matrix(0.989 0 0 1 162.1885 345.997)" class="st4 st5 st6">Lorem</text>
	<text transform="matrix(0.989 0 0 1 392.9717 345.997)" class="st4 st5 st6 st7"> </text>
	<text transform="matrix(0.989 0 0 1 440.8193 345.997)" class="st4 st5 st6">Ipsum</text>
	<text transform="matrix(0.989 0 0 1 662.6914 345.997)" class="st4 st5 st6 st7"> </text>
	<text transform="matrix(0.989 0 0 1 710.5488 345.997)" class="st4 st5 st6">este</text>
	<text transform="matrix(0.989 0 0 1 863.7549 345.997)" class="st4 st5 st6 st7"> </text>
	<text transform="matrix(0.989 0 0 1 911.6035 345.997)" class="st4 st5 st6">pur</text>
	<text transform="matrix(0.989 0 0 1 1036.168 345.997)" class="st4 st5 st6 st7"> </text>
	<text transform="matrix(0.989 0 0 1 1084.0156 345.997)" class="st4 st5 st6">şi</text>
	<text transform="matrix(0.989 0 0 1 1139.2607 345.997)" class="st4 st5 st6 st7"> </text>
	<text transform="matrix(0.989 0 0 1 1187.1084 345.997)" class="st4 st5 st6">simplu</text>
	<text transform="matrix(0.989 0 0 1 1427.4062 345.997)" class="st4 st5 st6 st7"> </text>
	<text transform="matrix(0.989 0 0 1 1475.2637 345.997)" class="st4 st5 st6">o </text>
	<text transform="matrix(0.989 0 0 1 162.1885 431.997)" class="st4 st5 st6">machetă</text>
	<text transform="matrix(0.989 0 0 1 477.0664 431.997)" class="st4 st5 st6 st8"> </text>
	<text transform="matrix(0.989 0 0 1 545.3369 431.997)" class="st4 st5 st6">pentru</text>
	<text transform="matrix(0.989 0 0 1 790.7676 431.997)" class="st4 st5 st6 st8"> </text>
	<text transform="matrix(0.989 0 0 1 859.0381 431.997)" class="st4 st5 st6">text</text>
	<text transform="matrix(0.989 0 0 1 1001.5029 431.997)" class="st4 st5 st6 st8"> </text>
	<text transform="matrix(0.989 0 0 1 1069.7734 431.997)" class="st4 st5 st6">a</text>
	<text transform="matrix(0.989 0 0 1 1112.4102 431.997)" class="st4 st5 st6 st8"> </text>
	<text transform="matrix(0.989 0 0 1 1180.6807 431.997)" class="st4 st5 st6">industriei </text>
	<text transform="matrix(0.989 0 0 1 162.1885 517.997)" class="st4 st5 st6">tipografice.</text>
	<text transform="matrix(0.989 0 0 1 572.5537 517.997)" class="st4 st5 st6 st9"> </text>
	<text transform="matrix(0.989 0 0 1 651.4561 517.997)" class="st4 st5 st6">Lorem</text>
	<text transform="matrix(0.989 0 0 1 882.2393 517.997)" class="st4 st5 st6 st9"> </text>
	<text transform="matrix(0.989 0 0 1 961.1523 517.997)" class="st4 st5 st6">Ipsum</text>
	<text transform="matrix(0.989 0 0 1 1183.0244 517.997)" class="st4 st5 st6 st9"> </text>
	<text transform="matrix(0.989 0 0 1 1261.9268 517.997)" class="st4 st5 st6">a</text>
	<text transform="matrix(0.989 0 0 1 1304.5625 517.997)" class="st4 st5 st6 st9"> </text>
	<text transform="matrix(0.989 0 0 1 1383.4746 517.997)" class="st4 st5 st6">fost </text>
	<text transform="matrix(0.989 0 0 1 162.1885 603.997)" class="st4 st5 st6">macheta</text>
	<text transform="matrix(0.989 0 0 1 477.0664 603.997)" class="st4 st5 st6 st7"> </text>
	<text transform="matrix(0.989 0 0 1 525.1416 603.997)" class="st4 st5 st6">standard</text>
	<text transform="matrix(0.989 0 0 1 846.3682 603.997)" class="st4 st5 st6 st7"> </text>
	<text transform="matrix(0.989 0 0 1 894.4336 603.997)" class="st4 st5 st6">a</text>
	<text transform="matrix(0.989 0 0 1 937.0703 603.997)" class="st4 st5 st6 st7"> </text>
	<text transform="matrix(0.989 0 0 1 985.1455 603.997)" class="st4 st5 st6">industriei</text>
	<text transform="matrix(0.989 0 0 1 1326.667 603.997)" class="st4 st5 st6 st7"> </text>
	<text transform="matrix(0.989 0 0 1 1374.7324 603.997)" class="st4 st5 st6">încă </text>
	<text transform="matrix(0.989 0 0 1 162.1885 689.997)" class="st4 st5 st6">din</text>
	<text transform="matrix(0.989 0 0 1 276.1411 689.997)" class="st4 st5 st6 st10"> </text>
	<text transform="matrix(0.989 0 0 1 293.2109 689.997)" class="st4 st5 st6">secolul</text>
	<text transform="matrix(0.989 0 0 1 544.5059 689.997)" class="st4 st5 st6 st10"> </text>
	<text transform="matrix(0.989 0 0 1 561.5762 689.997)" class="st4 st5 st6">al</text>
	<text transform="matrix(0.989 0 0 1 624.6348 689.997)" class="st4 st5 st6 st10"> </text>
	<text transform="matrix(0.989 0 0 1 641.7051 689.997)" class="st4 st5 st6">XVI-lea,</text>
	<text transform="matrix(0.989 0 0 1 917.6455 689.997)" class="st4 st5 st6 st10"> </text>
	<text transform="matrix(0.989 0 0 1 934.7158 689.997)" class="st4 st5 st6">când</text>
	<text transform="matrix(0.989 0 0 1 1108.5127 689.997)" class="st4 st5 st6 st10"> </text>
	<text transform="matrix(0.989 0 0 1 1125.583 689.997)" class="st4 st5 st6">un</text>
	<text transform="matrix(0.989 0 0 1 1219.1133 689.997)" class="st4 st5 st6 st10"> </text>
	<text transform="matrix(0.989 0 0 1 1236.1826 689.997)" class="st4 st5 st6">tipograf </text>
	<text transform="matrix(0.989 0 0 1 162.1885 775.997)" class="st4 st5 st6">anonim</text>
	<text transform="matrix(0.989 0 0 1 436.8242 775.997)" class="st4 st5 st6 st11"> </text>
	<text transform="matrix(0.989 0 0 1 467.0273 775.997)" class="st4 st5 st6">a</text>
	<text transform="matrix(0.989 0 0 1 509.6641 775.997)" class="st4 st5 st6 st11"> </text>
	<text transform="matrix(0.989 0 0 1 539.8779 775.997)" class="st4 st5 st6">luat</text>
	<text transform="matrix(0.989 0 0 1 679.5146 775.997)" class="st4 st5 st6 st11"> </text>
	<text transform="matrix(0.989 0 0 1 709.7285 775.997)" class="st4 st5 st6">o</text>
	<text transform="matrix(0.989 0 0 1 756.666 775.997)" class="st4 st5 st6 st11"> </text>
	<text transform="matrix(0.989 0 0 1 786.8701 775.997)" class="st4 st5 st6">planşetă</text>
	<text transform="matrix(0.989 0 0 1 1095.0137 775.997)" class="st4 st5 st6 st11"> </text>
	<text transform="matrix(0.989 0 0 1 1125.2168 775.997)" class="st4 st5 st6">de</text>
	<text transform="matrix(0.989 0 0 1 1216.2744 775.997)" class="st4 st5 st6 st11"> </text>
	<text transform="matrix(0.989 0 0 1 1246.4785 775.997)" class="st4 st5 st6">litere</text>
	<text transform="matrix(0.989 0 0 1 1436.752 775.997)" class="st4 st5 st6 st11"> </text>
	<text transform="matrix(0.989 0 0 1 1466.9658 775.997)" class="st4 st5 st6">şi </text>
	<text transform="matrix(0.989 0 0 1 162.1885 861.997)" class="st4 st5 st6">le-a amestecat pentru a crea o carte.</text>
	<g>
		<path class="st12" d="M649.94,243.83c0,9.56-8.75,17.31-19.54,17.31H185.38c-10.79,0-19.53-7.75-19.53-17.31v-71.16
			c0-9.56,8.75-17.31,19.53-17.31H630.4c10.79,0,19.54,7.75,19.54,17.31V243.83z"/>
		<g>
			<text transform="matrix(1 0 0 1 185.24 236.9299)" class="st13 st14 st6">0000/00/00</text>
		</g>
	</g>
	<g>
		<line class="st15" x1="831.95" y1="173.41" x2="900.87" y2="240.82"/>
		<line class="st15" x1="900.19" y1="173.47" x2="832.69" y2="242.33"/>
	</g>
	<rect x="162.19" y="1044.98" class="st3" width="1360" height="239.64"/>
	<text transform="matrix(0.989 0 0 1 162.188 1105.9971)" class="st4 st5 st6">Lorem</text>
	<text transform="matrix(0.989 0 0 1 392.9707 1105.9971)" class="st4 st5 st6 st7"> </text>
	<text transform="matrix(0.989 0 0 1 440.8193 1105.9971)" class="st4 st5 st6">Ipsum</text>
	<text transform="matrix(0.989 0 0 1 662.6914 1105.9971)" class="st4 st5 st6 st7"> </text>
	<text transform="matrix(0.989 0 0 1 710.5488 1105.9971)" class="st4 st5 st6">este</text>
	<text transform="matrix(0.989 0 0 1 863.7549 1105.9971)" class="st4 st5 st6 st7"> </text>
	<text transform="matrix(0.989 0 0 1 911.6025 1105.9971)" class="st4 st5 st6">pur</text>
	<text transform="matrix(0.989 0 0 1 1036.167 1105.9971)" class="st4 st5 st6 st7"> </text>
	<text transform="matrix(0.989 0 0 1 1084.0146 1105.9971)" class="st4 st5 st6">şi</text>
	<text transform="matrix(0.989 0 0 1 1139.2607 1105.9971)" class="st4 st5 st6 st7"> </text>
	<text transform="matrix(0.989 0 0 1 1187.1084 1105.9971)" class="st4 st5 st6">simplu</text>
	<text transform="matrix(0.989 0 0 1 1427.4062 1105.9971)" class="st4 st5 st6 st7"> </text>
	<text transform="matrix(0.989 0 0 1 1475.2637 1105.9971)" class="st4 st5 st6">o </text>
	<text transform="matrix(0.989 0 0 1 162.188 1191.9971)" class="st4 st5 st6">machetă</text>
	<text transform="matrix(0.989 0 0 1 477.0654 1191.9971)" class="st4 st5 st6 st8"> </text>
	<text transform="matrix(0.989 0 0 1 545.3359 1191.9971)" class="st4 st5 st6">pentru</text>
	<text transform="matrix(0.989 0 0 1 790.7666 1191.9971)" class="st4 st5 st6 st8"> </text>
	<text transform="matrix(0.989 0 0 1 859.0371 1191.9971)" class="st4 st5 st6">text</text>
	<text transform="matrix(0.989 0 0 1 1001.5029 1191.9971)" class="st4 st5 st6 st8"> </text>
	<text transform="matrix(0.989 0 0 1 1069.7734 1191.9971)" class="st4 st5 st6">a</text>
	<text transform="matrix(0.989 0 0 1 1112.4092 1191.9971)" class="st4 st5 st6 st8"> </text>
	<text transform="matrix(0.989 0 0 1 1180.6797 1191.9971)" class="st4 st5 st6">industriei </text>
	<text transform="matrix(0.989 0 0 1 162.188 1277.9971)" class="st4 st5 st6">tipografice. Lorem Ipsum a</text>
	<g>
		<path class="st12" d="M649.94,1003.83c0,9.56-8.75,17.31-19.54,17.31H185.38c-10.79,0-19.53-7.75-19.53-17.31v-71.16
			c0-9.56,8.75-17.31,19.53-17.31H630.4c10.79,0,19.54,7.75,19.54,17.31V1003.83z"/>
		<g>
			<text transform="matrix(1 0 0 1 185.24 996.9299)" class="st13 st14 st6">0000/00/00</text>
		</g>
	</g>
	<g>
		<line class="st15" x1="746.95" y1="933.41" x2="815.87" y2="1000.82"/>
		<line class="st15" x1="815.19" y1="933.47" x2="747.69" y2="1002.33"/>
	</g>
</g>
<path class="st16" d="M1569.02,251.79v-58.53c0-102.55-71.39-185.68-159.46-185.68L701.17,74.81L274.25,7.58
	c-88.07,0-159.45,83.13-159.45,185.68v58.06v978.3v58.53c0,102.55,71.39,185.68,159.46,185.68l708.39-67.23l426.93,67.23
	c88.07,0,159.45-83.13,159.45-185.68v-58.06v-978.3H1569.02z"/>
</svg>
